<svg xmlns="http://www.w3.org/2000/svg" viewBox="0 0 1000 800">
  <path fill="#00a7e1" d="M 0 800 L 0 200 C 0 200 150 150 250 150 C 350 150 500 200 500 200 C 500 200 650 250 750 250 C 850 250 1000 200 1000 200 L 1000 800 L 0 800 z"></path>
  <path fill="#0083c3" d="M 0 800 L 0 400 C 0 400 150 350 250 350 C 350 350 500 400 500 400 C 500 400 650 450 750 450 C 850 450 1000 400 1000 400 L 1000 800 L 0 800 z"></path>
  <path fill="#005d9e" d="M 0 800 L 0 600 C 0 600 150 550 250 550 C 350 550 500 600 500 600 C 500 600 650 650 750 650 C 850 650 1000 600 1000 600 L 1000 800 L 0 800 z"></path>
</svg>
